<?xml version="1.0" encoding="iso-8859-1"?>
<!-- Uploaded to: SVG Repo, www.svgrepo.com, Generator: SVG Repo Mixer Tools -->
<svg fill="#000000" height="800px" width="800px" version="1.1" id="Capa_1" xmlns="http://www.w3.org/2000/svg" xmlns:xlink="http://www.w3.org/1999/xlink" 
	 viewBox="0 0 58.035 58.035" xml:space="preserve">
<g>
	<g>
		<path d="M53,45.518v-16.5c0-10.201-8.302-18.5-18.506-18.5H23.506C13.302,10.518,5,18.816,5,29.018v16.5H0v2h6h46h6.035v-2H53z
			 M7,45.518v-16.5c0-9.098,7.404-16.5,16.506-16.5h10.988c9.101,0,16.506,7.402,16.506,16.5v16.5H7z"/>
		<path d="M22.9,31.523l-10,1c-0.55,0.055-0.95,0.545-0.896,1.095c0.052,0.516,0.486,0.9,0.994,0.9c0.033,0,0.066-0.001,0.101-0.005
			l10-1c0.55-0.055,0.95-0.545,0.896-1.095C23.94,31.869,23.463,31.471,22.9,31.523z"/>
		<path d="M45.1,32.522l-10-1c-0.556-0.053-1.039,0.346-1.095,0.895c-0.055,0.55,0.346,1.04,0.896,1.095l10,1
			c0.034,0.003,0.067,0.005,0.101,0.005c0.508,0,0.942-0.385,0.994-0.9C46.05,33.067,45.649,32.578,45.1,32.522z"/>
		<path d="M29.49,34.518h-0.98c-1.936,0-3.51,1.57-3.51,3.5v2.5c0,0.552,0.447,1,1,1h6c0.553,0,1-0.448,1-1v-2.5
			C33,36.088,31.426,34.518,29.49,34.518z M31,39.518h-4v-1.5c0-0.827,0.678-1.5,1.51-1.5h0.98c0.832,0,1.51,0.673,1.51,1.5V39.518z
			"/>
	</g>
</g>
</svg>