<?xml version="1.0" encoding="UTF-8" standalone="no"?>
<svg
   width="500"
   height="500"
   fill="#000000"
   viewBox="0"
   version="1.1"
   id="svg1"
   sodipodi:docname="mappinedited.svg"
   inkscape:version="1.4 (e7c3feb, 2024-10-09)"
   xmlns:inkscape="http://www.inkscape.org/namespaces/inkscape"
   xmlns:sodipodi="http://sodipodi.sourceforge.net/DTD/sodipodi-0.dtd"
   xmlns="http://www.w3.org/2000/svg"
   xmlns:svg="http://www.w3.org/2000/svg">
  <defs
     id="defs1" />
  <sodipodi:namedview
     id="namedview1"
     pagecolor="#ffffff"
     bordercolor="#000000"
     borderopacity="0.25"
     inkscape:showpageshadow="2"
     inkscape:pageopacity="0.0"
     inkscape:pagecheckerboard="0"
     inkscape:deskcolor="#d1d1d1"
     showgrid="true"
     showguides="true"
     inkscape:zoom="8"
     inkscape:cx="-17.5"
     inkscape:cy="-71.3125"
     inkscape:window-width="1876"
     inkscape:window-height="988"
     inkscape:window-x="22"
     inkscape:window-y="22"
     inkscape:window-maximized="1"
     inkscape:current-layer="svg1">
    <inkscape:grid
       id="grid1"
       units="px"
       originx="0"
       originy="0"
       spacingx="1"
       spacingy="1"
       empcolor="#0099e5"
       empopacity="0.30196078"
       color="#0099e5"
       opacity="0.14901961"
       empspacing="5"
       enabled="true"
       visible="true" />
    <sodipodi:guide
       position="0,471.11246"
       orientation="1,0"
       id="guide1"
       inkscape:locked="false" />
  </sodipodi:namedview>
  <path
     d="M 5.0659545e-8,-176.125 A 40,40 0 1 0 40,-136.125 40,40 0 0 0 5.0659545e-8,-176.125 Z m 0,64 A 24,24 0 1 1 24,-136.125 24,24 0 0 1 5.0659545e-8,-112.125 Z m 0,-112 A 88.1,88.1 0 0 0 -88,-136.125 c 0,31.4 14.51,64.68 42,96.25 a 254.19,254.19 0 0 0 41.4500001,38.3 8,8 0 0 0 9.18,0 A 254.19,254.19 0 0 0 46,-39.875 c 27.45,-31.57 42,-64.85 42,-96.25 A 88.1,88.1 0 0 0 5.0659545e-8,-224.125 Z m 0,206 C -16.53,-31.125 -72,-78.875 -72,-136.125 a 72,72 0 0 1 144,0 c 0,57.23 -55.47,105 -71.999999949340448,118 z"
     id="path1" />
</svg>
