<svg width="33" height="31" viewBox="0 0 33 31" fill="none" xmlns="http://www.w3.org/2000/svg">
<path d="M15.7223 1.47413C16.0404 0.841955 16.9596 0.841955 17.2777 1.47413L21.3956 9.65776C21.5219 9.9088 21.7661 10.0828 22.0486 10.1231L31.2565 11.4354C31.9678 11.5367 32.2519 12.3941 31.7372 12.8862L25.0742 19.2562C24.8698 19.4516 24.7765 19.7332 24.8248 20.0091L26.3977 29.0038C26.5192 29.6986 25.7756 30.2285 25.1394 29.9004L16.9036 25.6537C16.6509 25.5234 16.3491 25.5234 16.0964 25.6537L7.86058 29.9004C7.22437 30.2285 6.48079 29.6986 6.60229 29.0038L8.1752 20.0091C8.22345 19.7332 8.13019 19.4516 7.92579 19.2562L1.26284 12.8862C0.748129 12.3941 1.03215 11.5367 1.74346 11.4354L10.9514 10.1231C11.2339 10.0828 11.4781 9.9088 11.6044 9.65776L15.7223 1.47413Z" stroke="#715E50" stroke-width="2" stroke-linejoin="round"/>
</svg>
