<svg width="210" height="33" viewBox="0 0 210 33" fill="none" xmlns="http://www.w3.org/2000/svg">
<path d="M192.197 1.50574C192.526 0.831419 193.474 0.831419 193.803 1.50574L198.054 10.2349C198.184 10.5027 198.436 10.6883 198.728 10.7313L208.233 12.131C208.967 12.2392 209.26 13.1537 208.729 13.6786L201.851 20.4733C201.64 20.6817 201.544 20.982 201.593 21.2764L203.217 30.8707C203.342 31.6118 202.575 32.177 201.918 31.8271L193.417 27.2973C193.156 27.1583 192.844 27.1583 192.583 27.2973L184.082 31.8271C183.425 32.177 182.658 31.6118 182.783 30.8707L184.407 21.2764C184.456 20.982 184.36 20.6817 184.149 20.4733L177.271 13.6786C176.74 13.1537 177.033 12.2392 177.767 12.131L187.272 10.7313C187.564 10.6883 187.816 10.5027 187.946 10.2349L192.197 1.50574Z" stroke="#715E50" stroke-width="2" stroke-linejoin="round"/>
<path d="M148.197 1.50574C148.526 0.831419 149.474 0.831419 149.803 1.50574L154.054 10.2349C154.184 10.5027 154.436 10.6883 154.728 10.7313L164.233 12.131C164.967 12.2392 165.26 13.1537 164.729 13.6786L157.851 20.4733C157.64 20.6817 157.544 20.982 157.593 21.2764L159.217 30.8707C159.342 31.6118 158.575 32.177 157.918 31.8271L149.417 27.2973C149.156 27.1583 148.844 27.1583 148.583 27.2973L140.082 31.8271C139.425 32.177 138.658 31.6118 138.783 30.8707L140.407 21.2764C140.456 20.982 140.36 20.6817 140.149 20.4733L133.271 13.6786C132.74 13.1537 133.033 12.2392 133.767 12.131L143.272 10.7313C143.564 10.6883 143.816 10.5027 143.946 10.2349L148.197 1.50574Z" stroke="#715E50" stroke-width="2" stroke-linejoin="round"/>
<path d="M104.197 1.50574C104.526 0.831419 105.474 0.831419 105.803 1.50574L110.054 10.2349C110.184 10.5027 110.436 10.6883 110.728 10.7313L120.233 12.131C120.967 12.2392 121.26 13.1537 120.729 13.6786L113.851 20.4733C113.64 20.6817 113.544 20.982 113.593 21.2764L115.217 30.8707C115.342 31.6118 114.575 32.177 113.918 31.8271L105.417 27.2973C105.156 27.1583 104.844 27.1583 104.583 27.2973L96.0819 31.8271C95.4252 32.177 94.6576 31.6118 94.783 30.8707L96.4067 21.2764C96.4565 20.982 96.3602 20.6817 96.1492 20.4733L89.2713 13.6786C88.74 13.1537 89.0332 12.2392 89.7674 12.131L99.2725 10.7313C99.564 10.6883 99.8161 10.5027 99.9465 10.2349L104.197 1.50574Z" stroke="#715E50" stroke-width="2" stroke-linejoin="round"/>
<path d="M60.1972 1.50574C60.5256 0.831419 61.4744 0.831419 61.8028 1.50574L66.0535 10.2349C66.1839 10.5027 66.436 10.6883 66.7275 10.7313L76.2326 12.131C76.9668 12.2392 77.26 13.1537 76.7287 13.6786L69.8508 20.4733C69.6398 20.6817 69.5435 20.982 69.5933 21.2764L71.217 30.8707C71.3424 31.6118 70.5748 32.177 69.9181 31.8271L61.4166 27.2973C61.1558 27.1583 60.8442 27.1583 60.5834 27.2973L52.0819 31.8271C51.4252 32.177 50.6576 31.6118 50.783 30.8707L52.4067 21.2764C52.4565 20.982 52.3602 20.6817 52.1492 20.4733L45.2713 13.6786C44.74 13.1537 45.0332 12.2392 45.7674 12.131L55.2725 10.7313C55.564 10.6883 55.8161 10.5027 55.9465 10.2349L60.1972 1.50574Z" stroke="#715E50" stroke-width="2" stroke-linejoin="round"/>
<path d="M16.1972 1.50574C16.5256 0.831419 17.4744 0.831419 17.8028 1.50574L22.0535 10.2349C22.1839 10.5027 22.436 10.6883 22.7275 10.7313L32.2326 12.131C32.9668 12.2392 33.26 13.1537 32.7287 13.6786L25.8508 20.4733C25.6398 20.6817 25.5435 20.982 25.5933 21.2764L27.217 30.8707C27.3424 31.6118 26.5748 32.177 25.9181 31.8271L17.4166 27.2973C17.1558 27.1583 16.8442 27.1583 16.5834 27.2973L8.08189 31.8271C7.42515 32.177 6.65759 31.6118 6.78301 30.8707L8.40666 21.2764C8.45647 20.982 8.36019 20.6817 8.14921 20.4733L1.27132 13.6786C0.740004 13.1537 1.03319 12.2392 1.76744 12.131L11.2725 10.7313C11.564 10.6883 11.8161 10.5027 11.9465 10.2349L16.1972 1.50574Z" stroke="#715E50" stroke-width="2" stroke-linejoin="round"/>
</svg>
