<svg width="605" height="863" viewBox="0 0 605 863" fill="none" xmlns="http://www.w3.org/2000/svg">
<g filter="url(#filter0_d_127_896)">
<rect x="8" y="10" width="589" height="1538" rx="25" fill="white"/>
</g>
<path d="M8 527.908H595.043M8 559.381H595.043M8 590.853H595.043M8 622.326H595.043M8 653.799H595.043M8 685.272H595.043M8 716.745H595.043M8 748.218H595.043M8 779.69H595.043M8 811.163H595.043M8 842.636H595.043M8 874.109H595.043M8 905.582H595.043M8 937.054H595.043M8 968.527H595.043M8 1000H595.043" stroke="#C6E2FF" stroke-width="3"/>
<path d="M9.95679 62.4728H597M9.95679 93.9457H597M9.95679 125.418H597M9.95679 156.891H597M9.95679 188.364H597M9.95679 219.837H597M9.95679 251.31H597M9.95679 282.783H597M9.95679 314.255H597M9.95679 345.728H597M9.95679 377.201H597M9.95679 408.674H597M9.95679 440.147H597M9.95679 471.62H597M9.95679 503.092H597" stroke="#C6E2FF" stroke-width="3"/>
<line x1="57.5588" y1="35" x2="57.5588" y2="10035" stroke="#F0A1A3" stroke-width="2"/>
<defs>
<filter id="filter0_d_127_896" x="0.8" y="0.8" width="603.4" height="1552.4" filterUnits="userSpaceOnUse" color-interpolation-filters="sRGB">
<feFlood flood-opacity="0" result="BackgroundImageFix"/>
<feColorMatrix in="SourceAlpha" type="matrix" values="0 0 0 0 0 0 0 0 0 0 0 0 0 0 0 0 0 0 127 0" result="hardAlpha"/>
<feMorphology radius="3" operator="erode" in="SourceAlpha" result="effect1_dropShadow_127_896"/>
<feOffset dy="-2"/>
<feGaussianBlur stdDeviation="5.1"/>
<feComposite in2="hardAlpha" operator="out"/>
<feColorMatrix type="matrix" values="0 0 0 0 0 0 0 0 0 0 0 0 0 0 0 0 0 0 0.25 0"/>
<feBlend mode="normal" in2="BackgroundImageFix" result="effect1_dropShadow_127_896"/>
<feBlend mode="normal" in="SourceGraphic" in2="effect1_dropShadow_127_896" result="shape"/>
</filter>
</defs>
</svg>
