<svg width="24" height="120" viewBox="0 0 24 120" fill="none" xmlns="http://www.w3.org/2000/svg">
<path d="M6.01129 12.1871C9.31912 8.97669 14.6822 8.97669 17.99 12.1871M9.00596 15.0935C10.6599 13.4883 13.3414 13.4883 14.9953 15.0935M12.0006 18L12.0182 17.983M3 9.61811C7.97056 4.79396 16.0294 4.79396 21 9.61811" stroke="#715E50" stroke-width="2" stroke-linecap="round" stroke-linejoin="round"/>
<path d="M19.6824 40.0794C21.2661 42.5939 21.4898 45.9404 19.9833 48.9018M16.3459 41.7241C17.6827 43.2866 17.8715 45.3662 16.5999 47.2065M12 38L7.58775 41.4884H3V46.5111L7.58775 46.5099L12 50V38Z" stroke="#715E50" stroke-width="2" stroke-linecap="round" stroke-linejoin="round"/>
<path d="M18.088 80.8638C17.5434 80.9553 17.176 81.471 17.2675 82.0157C17.359 82.5603 17.8747 82.9277 18.4194 82.8362L18.088 80.8638ZM17.0152 75.3824C16.4629 75.3824 16.0152 75.8301 16.0152 76.3824C16.0152 76.9347 16.4629 77.3824 17.0152 77.3824V75.3824ZM16.0924 74.2827C17.5684 74.2827 18.7646 73.0858 18.7646 71.61H16.7646C16.7646 71.9818 16.4633 72.2827 16.0924 72.2827V74.2827ZM13.4202 71.61C13.4202 73.0858 14.6163 74.2827 16.0924 74.2827V72.2827C15.7214 72.2827 15.4202 71.9818 15.4202 71.61H13.4202ZM16.0924 68.9373C14.6163 68.9373 13.4202 70.1342 13.4202 71.61H15.4202C15.4202 71.2382 15.7214 70.9373 16.0924 70.9373V68.9373ZM18.7646 71.61C18.7646 70.1342 17.5684 68.9373 16.0924 68.9373V70.9373C16.4633 70.9373 16.7646 71.2382 16.7646 71.61H18.7646ZM20 79.1641C20 79.5763 19.8701 79.9126 19.6161 80.1792C19.3531 80.4551 18.8849 80.73 18.088 80.8638L18.4194 82.8362C19.524 82.6506 20.429 82.225 21.0638 81.5591C21.7075 80.8838 22 80.0369 22 79.1641H20ZM17.0152 77.3824C17.9362 77.3824 18.7269 77.6446 19.2605 78.0171C19.7974 78.3919 20 78.8131 20 79.1641H22C22 77.9788 21.3105 77.0091 20.4053 76.3771C19.4967 75.7429 18.295 75.3824 17.0152 75.3824V77.3824ZM10.2625 71.4294C10.2625 72.4651 9.58382 73.0307 8.89183 73.0307V75.0307C10.8184 75.0307 12.2625 73.435 12.2625 71.4294H10.2625ZM8.89183 73.0307C8.19984 73.0307 7.52113 72.4651 7.52113 71.4294H5.52113C5.52113 73.435 6.96521 75.0307 8.89183 75.0307V73.0307ZM7.52113 71.4294C7.52113 70.9122 7.69567 70.5724 7.9127 70.3613C8.1359 70.1442 8.4696 70 8.89183 70V68C8.00476 68 7.15311 68.3101 6.51827 68.9276C5.87728 69.551 5.52113 70.4258 5.52113 71.4294H7.52113ZM8.89183 70C9.31406 70 9.64776 70.1442 9.87096 70.3613C10.088 70.5724 10.2625 70.9122 10.2625 71.4294H12.2625C12.2625 70.4258 11.9064 69.551 11.2654 68.9276C10.6306 68.3101 9.7789 68 8.89183 68V70ZM14.0703 80.1679C14.0703 80.4806 13.9159 80.8937 13.1677 81.2838C12.3865 81.6911 11.0606 82 9.03513 82L9.03513 84C11.216 84 12.9076 83.6749 14.0924 83.0572C15.3103 82.4222 16.0703 81.4193 16.0703 80.1679H14.0703ZM9.03513 82C7.00965 82 5.68372 81.6911 4.90252 81.2838C4.1544 80.8937 4 80.4806 4 80.1679H2C2 81.4193 2.76001 82.4222 3.97789 83.0572C5.16268 83.6749 6.85432 84 9.03513 84L9.03513 82ZM4 80.1679C4 80.0022 4.18138 79.545 5.19247 79.0705C6.12422 78.6333 7.48172 78.3357 9.03513 78.3357V76.3357C7.25544 76.3357 5.59537 76.6722 4.34283 77.26C3.16963 77.8105 2 78.7695 2 80.1679H4ZM9.03513 78.3357C10.5886 78.3357 11.9461 78.6333 12.8778 79.0705C13.8889 79.545 14.0703 80.0022 14.0703 80.1679H16.0703C16.0703 78.7695 14.9006 77.8105 13.7274 77.26C12.4749 76.6722 10.8148 76.3357 9.03513 76.3357V78.3357Z" fill="#715E50"/>
<path d="M22.2 109.8V106.2M10.2 111L13.2 108H7.79999L10.8 105M4.19999 114H16.2C17.5255 114 18.6 112.925 18.6 111.6V104.4C18.6 103.075 17.5255 102 16.2 102H4.19999C2.8745 102 1.79999 103.075 1.79999 104.4V111.6C1.79999 112.925 2.8745 114 4.19999 114Z" stroke="#715E50" stroke-width="2" stroke-linecap="round" stroke-linejoin="round"/>
</svg>
