<svg width="32" height="31" viewBox="0 0 32 31" fill="none" xmlns="http://www.w3.org/2000/svg">
<path d="M15.2474 1.46596C15.5553 0.84468 16.4447 0.84468 16.7526 1.46596L20.7377 9.50849C20.8599 9.7552 21.0962 9.9262 21.3696 9.96576L30.2805 11.2554C30.9689 11.3551 31.2437 12.1976 30.7456 12.6812L24.2976 18.9415C24.0998 19.1335 24.0096 19.4102 24.0563 19.6813L25.5784 28.5209C25.696 29.2038 24.9764 29.7245 24.3607 29.4021L16.3905 25.2286C16.146 25.1006 15.854 25.1006 15.6095 25.2286L7.63927 29.4021C7.02358 29.7245 6.30399 29.2038 6.42157 28.5209L7.94375 19.6813C7.99044 19.4102 7.90018 19.1335 7.70238 18.9415L1.25436 12.6812C0.756254 12.1976 1.03111 11.3551 1.71948 11.2554L10.6304 9.96576C10.9038 9.9262 11.1401 9.7552 11.2623 9.50849L15.2474 1.46596Z" stroke="#FFFDF8" stroke-width="2" stroke-linejoin="round"/>
</svg>
